# xmcd
#
# Track frame offsets: 
#        150
#        14863
#        32344
#        51709
#        73756
#        98637
#        116894
#        133865
#        201493
#        222156
#        237897
#        254572
#        274677
#        293854
#
# Disc length: 4235 seconds
#
# Revision: 0
# Processed by: cddbd v1.5.2PL0 Copyright (c) Steve Scherf et al.
# Submitted via: ExactAudioCopyFreeDBPlugin 1.0
#
DISCID=e610890e
DTITLE=Daniels Band, Charlie - Live At Billy Bob's Texas [February 20,
DTITLE=2015, Fort Worth]
DYEAR=2015
DGENRE=Country
TTITLE0=Southern Boy
TTITLE1=Drinkin' My Baby Goodbye
TTITLE2=Tangled Up In Blue
TTITLE3=The Legend Of Wooley Swamp
TTITLE4=El Toreador
TTITLE5=(What This World Needs Is) A Few More Rednecks
TTITLE6=In America
TTITLE7=Black Ice
TTITLE8=Long Haired Country Boy
TTITLE9=I'll Be Your Baby Tonight
TTITLE10=Folsom Prison Blues
TTITLE11=How Great Thou Art
TTITLE12=The South's Gonna Do It (Again)
TTITLE13=The Devil Went Down To Georgia
EXTD=
EXTT0=
EXTT1=
EXTT2=
EXTT3=
EXTT4=
EXTT5=
EXTT6=
EXTT7=
EXTT8=
EXTT9=
EXTT10=
EXTT11=
EXTT12=
EXTT13=
PLAYORDER=
